<svg width="35" height="35" viewBox="0 0 35 35" fill="none" xmlns="http://www.w3.org/2000/svg">
<g clip-path="url(#clip0_562_465)">
<path d="M31.3553 5.83325H28.1956V7.7777H31.1122V29.1666H3.89001V7.7777H6.80667V5.83325H3.64695C3.41968 5.83705 3.19539 5.88558 2.98688 5.97608C2.77837 6.06658 2.58973 6.19726 2.43173 6.36067C2.27374 6.52409 2.14948 6.71702 2.06607 6.92846C1.98265 7.1399 1.9417 7.36571 1.94556 7.59297V29.3513C1.9417 29.5786 1.98265 29.8044 2.06607 30.0158C2.14948 30.2273 2.27374 30.4202 2.43173 30.5836C2.58973 30.747 2.77837 30.8777 2.98688 30.9682C3.19539 31.0587 3.41968 31.1072 3.64695 31.111H31.3553C31.5826 31.1072 31.8069 31.0587 32.0154 30.9682C32.2239 30.8777 32.4125 30.747 32.5705 30.5836C32.7285 30.4202 32.8528 30.2273 32.9362 30.0158C33.0196 29.8044 33.0605 29.5786 33.0567 29.3513V7.59297C33.0605 7.36571 33.0196 7.1399 32.9362 6.92846C32.8528 6.71702 32.7285 6.52409 32.5705 6.36067C32.4125 6.19726 32.2239 6.06658 32.0154 5.97608C31.8069 5.88558 31.5826 5.83705 31.3553 5.83325Z" fill="#888888"/>
<path d="M7.77734 13.6111H9.72179V15.5555H7.77734V13.6111Z" fill="#888888"/>
<path d="M13.6094 13.6111H15.5538V15.5555H13.6094V13.6111Z" fill="#888888"/>
<path d="M19.4453 13.6111H21.3898V15.5555H19.4453V13.6111Z" fill="#888888"/>
<path d="M25.2773 13.6111H27.2218V15.5555H25.2773V13.6111Z" fill="#888888"/>
<path d="M7.77734 18.4722H9.72179V20.4166H7.77734V18.4722Z" fill="#888888"/>
<path d="M13.6094 18.4722H15.5538V20.4166H13.6094V18.4722Z" fill="#888888"/>
<path d="M19.4453 18.4722H21.3898V20.4166H19.4453V18.4722Z" fill="#888888"/>
<path d="M25.2773 18.4722H27.2218V20.4166H25.2773V18.4722Z" fill="#888888"/>
<path d="M7.77734 23.3333H9.72179V25.2777H7.77734V23.3333Z" fill="#888888"/>
<path d="M13.6094 23.3333H15.5538V25.2777H13.6094V23.3333Z" fill="#888888"/>
<path d="M19.4453 23.3333H21.3898V25.2777H19.4453V23.3333Z" fill="#888888"/>
<path d="M25.2773 23.3333H27.2218V25.2777H25.2773V23.3333Z" fill="#888888"/>
<path d="M9.72222 9.72211C9.98007 9.72211 10.2274 9.61968 10.4097 9.43736C10.592 9.25503 10.6944 9.00774 10.6944 8.74989V2.91656C10.6944 2.65871 10.592 2.41142 10.4097 2.22909C10.2274 2.04677 9.98007 1.94434 9.72222 1.94434C9.46437 1.94434 9.21708 2.04677 9.03476 2.22909C8.85243 2.41142 8.75 2.65871 8.75 2.91656V8.74989C8.75 9.00774 8.85243 9.25503 9.03476 9.43736C9.21708 9.61968 9.46437 9.72211 9.72222 9.72211Z" fill="#888888"/>
<path d="M25.2769 9.72211C25.5348 9.72211 25.782 9.61968 25.9644 9.43736C26.1467 9.25503 26.2491 9.00774 26.2491 8.74989V2.91656C26.2491 2.65871 26.1467 2.41142 25.9644 2.22909C25.782 2.04677 25.5348 1.94434 25.2769 1.94434C25.0191 1.94434 24.7718 2.04677 24.5894 2.22909C24.4071 2.41142 24.3047 2.65871 24.3047 2.91656V8.74989C24.3047 9.00774 24.4071 9.25503 24.5894 9.43736C24.7718 9.61968 25.0191 9.72211 25.2769 9.72211Z" fill="#888888"/>
<path d="M12.6406 5.83325H22.3628V7.7777H12.6406V5.83325Z" fill="#888888"/>
</g>
<defs>
<clipPath id="clip0_562_465">
<rect width="35" height="35" fill="white"/>
</clipPath>
</defs>
</svg>
